#define a67330ef55274debd5e9307c23add8fe_width 26
#define a67330ef55274debd5e9307c23add8fe_height 26
static char a67330ef55274debd5e9307c23add8fe_bits[] = {
  0x00, 0x00, 0x00, 0x00, 0x00, 0x00, 0x00, 0x00, 0x00, 0x00, 0x00, 0x00, 
  0x00, 0x00, 0x00, 0x00, 0x00, 0x00, 0x00, 0x00, 0x00, 0x00, 0x00, 0x00, 
  0x00, 0x00, 0x00, 0x00, 0x00, 0x00, 0x00, 0x00, 0x00, 0x00, 0x00, 0x00, 
  0x00, 0x00, 0x00, 0x00, 0x00, 0x00, 0x00, 0x00, 0x00, 0x00, 0x00, 0x00, 
  0x00, 0x00, 0x00, 0x00, 0x00, 0x00, 0x00, 0x00, 0x00, 0x78, 0x00, 0x00, 
  0x00, 0xFE, 0x01, 0x00, 0x00, 0xFF, 0x03, 0x00, 0x80, 0xFF, 0x07, 0x00, 
  0x00, 0xFF, 0x03, 0x00, 0x00, 0xFE, 0x01, 0x00, 0x00, 0x86, 0x01, 0x00, 
  0x00, 0x78, 0x00, 0x00, 0x00, 0x78, 0x00, 0x00, 0x00, 0x30, 0x00, 0x00, 
  0x00, 0x30, 0x00, 0x00, 0x00, 0x00, 0x00, 0x00, };
