#define 986765867cf94199efba185986be8e0d_width 26
#define 986765867cf94199efba185986be8e0d_height 26
static char 986765867cf94199efba185986be8e0d_bits[] = {
  0x00, 0x00, 0x00, 0x00, 0x18, 0x00, 0x60, 0x00, 0x38, 0x00, 0x70, 0x00, 
  0x6C, 0x00, 0xD8, 0x00, 0x64, 0x00, 0xD8, 0x00, 0x26, 0x00, 0x9A, 0x00, 
  0x36, 0x01, 0xB2, 0x01, 0x92, 0x03, 0xB7, 0x01, 0x92, 0x86, 0x25, 0x01, 
  0xDB, 0x86, 0x25, 0x01, 0xDB, 0xB2, 0x6D, 0x01, 0x5B, 0x3A, 0x6D, 0x03, 
  0x5B, 0x7A, 0x6D, 0x03, 0x5B, 0x3A, 0x6D, 0x03, 0xDB, 0xB2, 0x6D, 0x01, 
  0xDB, 0x96, 0x25, 0x01, 0x92, 0xDC, 0x24, 0x01, 0xD2, 0x59, 0xB6, 0x01, 
  0xF6, 0x10, 0xBC, 0x01, 0x66, 0x00, 0x98, 0x00, 0x24, 0x00, 0xD0, 0x00, 
  0x0C, 0x00, 0xC0, 0x00, 0x08, 0x00, 0x60, 0x00, 0x08, 0x00, 0x40, 0x00, 
  0x00, 0x00, 0x00, 0x00, 0x00, 0x00, 0x00, 0x00, };
