#define a3fc173c14154635d413e6820cc63405_width 26
#define a3fc173c14154635d413e6820cc63405_height 26
static char a3fc173c14154635d413e6820cc63405_bits[] = {
  0x00, 0x00, 0x00, 0x00, 0x00, 0xFE, 0x01, 0x00, 0x80, 0x87, 0x07, 0x00, 
  0xE0, 0x00, 0x1C, 0x00, 0x30, 0x00, 0x30, 0x00, 0x18, 0x00, 0x60, 0x00, 
  0x08, 0x01, 0x42, 0x00, 0x8C, 0x03, 0xC7, 0x00, 0xC4, 0x87, 0x8F, 0x00, 
  0x86, 0xCF, 0x87, 0x01, 0x06, 0xFF, 0x83, 0x01, 0x02, 0xFE, 0x01, 0x01, 
  0x02, 0xFC, 0x00, 0x01, 0x02, 0xF8, 0x00, 0x01, 0x02, 0xFC, 0x01, 0x01, 
  0x02, 0xFE, 0x03, 0x01, 0x06, 0xCF, 0x87, 0x01, 0x86, 0x87, 0x8F, 0x01, 
  0x8C, 0x03, 0xCF, 0x00, 0x0C, 0x01, 0xC6, 0x00, 0x18, 0x00, 0x60, 0x00, 
  0x30, 0x00, 0x30, 0x00, 0x60, 0x00, 0x18, 0x00, 0xC0, 0x01, 0x0F, 0x00, 
  0x00, 0xFF, 0x03, 0x00, 0x00, 0x78, 0x00, 0x00, };
