#define 84e7d7b956254a47837ce1436c9e2887_width 26
#define 84e7d7b956254a47837ce1436c9e2887_height 26
static char 84e7d7b956254a47837ce1436c9e2887_bits[] = {
  0x00, 0x00, 0x00, 0x00, 0x00, 0xFE, 0x03, 0x00, 0x80, 0x87, 0x0F, 0x00, 
  0xE0, 0x00, 0x1C, 0x00, 0x70, 0x00, 0x30, 0x00, 0x18, 0x00, 0x60, 0x00, 
  0x18, 0x00, 0xC0, 0x00, 0x0C, 0x00, 0xD8, 0x00, 0x04, 0x00, 0xBC, 0x01, 
  0x06, 0x00, 0xBE, 0x01, 0x46, 0x00, 0x1F, 0x01, 0xE6, 0x80, 0x0F, 0x01, 
  0xF2, 0xC1, 0x07, 0x03, 0xE2, 0xE3, 0x03, 0x03, 0xC2, 0xF7, 0x01, 0x01, 
  0x86, 0xFF, 0x00, 0x01, 0x06, 0x7F, 0x80, 0x01, 0x04, 0x3E, 0x80, 0x01, 
  0x0C, 0x1C, 0x80, 0x00, 0x08, 0x08, 0xC0, 0x00, 0x18, 0x00, 0x60, 0x00, 
  0x30, 0x00, 0x30, 0x00, 0xE0, 0x00, 0x18, 0x00, 0xC0, 0x03, 0x0F, 0x00, 
  0x00, 0xFF, 0x03, 0x00, 0x00, 0x30, 0x00, 0x00, };
