#define c670f45f18f6464add5fd47fefb09582_width 26
#define c670f45f18f6464add5fd47fefb09582_height 26
static char c670f45f18f6464add5fd47fefb09582_bits[] = {
  0x00, 0x00, 0x00, 0x00, 0x00, 0x00, 0x00, 0x00, 0x00, 0x00, 0x00, 0x00, 
  0x00, 0x00, 0x40, 0x00, 0x00, 0x00, 0x70, 0x00, 0x00, 0x00, 0x7C, 0x00, 
  0x00, 0x00, 0x7E, 0x00, 0x00, 0x00, 0x7C, 0x00, 0x00, 0x00, 0x78, 0x00, 
  0x00, 0x0C, 0x58, 0x00, 0x00, 0x1C, 0x4C, 0x00, 0x00, 0x3E, 0x4E, 0x00, 
  0x00, 0x37, 0x06, 0x00, 0x80, 0x73, 0x07, 0x00, 0x80, 0xE1, 0x03, 0x00, 
  0xC0, 0xC1, 0x01, 0x00, 0xA0, 0xC0, 0x01, 0x00, 0x70, 0x80, 0x00, 0x00, 
  0x30, 0x00, 0x00, 0x00, 0x20, 0x00, 0x00, 0x00, 0x0C, 0x00, 0x00, 0x00, 
  0x0C, 0x00, 0x00, 0x00, 0x04, 0x00, 0x00, 0x00, 0x00, 0x00, 0x00, 0x00, 
  0x00, 0x00, 0x00, 0x00, 0x00, 0x00, 0x00, 0x00, };
