#define 23378ee0f5854f2aad54094ee3b38f6e_width 26
#define 23378ee0f5854f2aad54094ee3b38f6e_height 26
static char 23378ee0f5854f2aad54094ee3b38f6e_bits[] = {
  0x00, 0x00, 0x00, 0x00, 0x00, 0x00, 0x00, 0x00, 0x00, 0x00, 0x00, 0x00, 
  0x00, 0x00, 0x60, 0x00, 0x00, 0x00, 0x60, 0x00, 0x00, 0x00, 0x40, 0x00, 
  0x00, 0x00, 0x08, 0x00, 0x00, 0x02, 0x1C, 0x00, 0x00, 0x02, 0x0C, 0x00, 
  0x00, 0x07, 0x0A, 0x00, 0x00, 0x0F, 0x07, 0x00, 0x80, 0x8D, 0x03, 0x00, 
  0xC0, 0x9D, 0x01, 0x00, 0xC0, 0xF8, 0x01, 0x00, 0xEC, 0xF0, 0x00, 0x00, 
  0x6C, 0x70, 0x00, 0x00, 0x7C, 0x60, 0x00, 0x00, 0x3C, 0x00, 0x00, 0x00, 
  0x7C, 0x00, 0x00, 0x00, 0xFC, 0x00, 0x00, 0x00, 0x7C, 0x00, 0x00, 0x00, 
  0x1C, 0x00, 0x00, 0x00, 0x04, 0x00, 0x00, 0x00, 0x00, 0x00, 0x00, 0x00, 
  0x00, 0x00, 0x00, 0x00, 0x00, 0x00, 0x00, 0x00, };
